<?xml version="1.0" standalone="no"?>
<!DOCTYPE svg PUBLIC "-//W3C//DTD SVG 20010904//EN"
 "http://www.w3.org/TR/2001/REC-SVG-20010904/DTD/svg10.dtd">
<svg version="1.0" xmlns="http://www.w3.org/2000/svg"
 width="512.000000pt" height="512.000000pt" viewBox="0 0 512.000000 512.000000"
 preserveAspectRatio="xMidYMid meet">

<g transform="translate(0.000000,512.000000) scale(0.100000,-0.100000)"
fill="#000000" stroke="none">
<path d="M997 3925 c-22 -7 -49 -22 -60 -33 -490 -442 -879 -802 -902 -835
l-30 -42 -3 -239 c-3 -200 -1 -246 12 -281 23 -58 75 -105 133 -120 l48 -12 5
-1114 c6 -1234 0 -1144 70 -1202 44 -38 89 -47 231 -47 113 0 130 2 175 25 54
27 91 74 105 132 5 21 9 525 9 1121 l0 1082 1770 0 1770 0 0 -1082 c0 -596 4
-1100 9 -1121 14 -58 51 -105 105 -132 45 -23 62 -25 175 -25 142 0 187 9 231
47 70 58 64 -32 70 1202 l5 1114 48 12 c56 14 102 54 128 110 16 35 19 67 19
270 0 220 -1 233 -23 275 -17 34 -131 145 -472 458 -247 227 -463 421 -480
430 -28 16 -142 17 -1570 19 -1287 2 -1546 0 -1578 -12z"/>
<path d="M990 1653 c0 -506 0 -518 21 -561 58 -119 234 -138 322 -33 45 54 48
100 45 621 l-3 485 -192 3 -193 2 0 -517z"/>
<path d="M3747 2163 c-4 -3 -7 -228 -7 -498 0 -538 3 -566 57 -617 49 -45 90
-61 154 -56 74 5 129 40 158 100 21 43 21 55 21 561 l0 517 -188 0 c-104 0
-192 -3 -195 -7z"/>
</g>
</svg>
